<svg xmlns="http://www.w3.org/2000/svg" xmlns:xlink="http://www.w3.org/1999/xlink" width="100" zoomAndPan="magnify" viewBox="0 0 75 74.999997" height="100" preserveAspectRatio="xMidYMid meet" version="1.0"><defs><clipPath id="3352c67c02"><path d="M 23 18.800781 L 41 18.800781 L 41 35 L 23 35 Z M 23 18.800781 " clip-rule="nonzero"/></clipPath><clipPath id="ee6b32177c"><path d="M 5.441406 41 L 23 41 L 23 75 L 5.441406 75 Z M 5.441406 41 " clip-rule="nonzero"/></clipPath><clipPath id="29410fefb6"><path d="M 42 48 L 58.691406 48 L 58.691406 75 L 42 75 Z M 42 48 " clip-rule="nonzero"/></clipPath><clipPath id="52d3d3c559"><path d="M 51 28 L 64 28 L 64 39.75 L 51 39.75 Z M 51 28 " clip-rule="nonzero"/></clipPath><clipPath id="7214f981b3"><path d="M 48.078125 0 L 69.816406 0 L 69.816406 27.589844 L 48.078125 27.589844 Z M 48.078125 0 " clip-rule="nonzero"/></clipPath></defs><g clip-path="url(#3352c67c02)"><path fill="#0075b2" d="M 40.09375 33.261719 L 36.316406 24.386719 C 36.164062 24.03125 35.816406 23.796875 35.433594 23.796875 L 33.027344 23.796875 L 33.027344 19.945312 C 33.027344 19.414062 32.597656 18.980469 32.066406 18.980469 C 31.539062 18.980469 31.105469 19.414062 31.105469 19.945312 L 31.105469 23.796875 L 28.703125 23.796875 C 28.320312 23.796875 27.972656 24.03125 27.820312 24.386719 L 24.042969 33.261719 C 23.917969 33.558594 23.945312 33.898438 24.128906 34.167969 C 24.3125 34.4375 24.609375 34.601562 24.925781 34.601562 L 39.210938 34.601562 C 39.535156 34.601562 39.835938 34.4375 40.007812 34.167969 C 40.179688 33.898438 40.21875 33.558594 40.09375 33.261719 Z M 40.09375 33.261719 " fill-opacity="1" fill-rule="nonzero"/></g><g clip-path="url(#ee6b32177c)"><path fill="#0075b2" d="M 21.082031 41.144531 L 6.421875 41.144531 C 5.894531 41.144531 5.460938 41.578125 5.460938 42.109375 L 5.460938 73.910156 C 5.460938 74.4375 5.894531 74.871094 6.421875 74.871094 L 21.082031 74.871094 C 21.609375 74.871094 22.042969 74.4375 22.042969 73.910156 L 22.042969 42.109375 C 22.042969 41.578125 21.609375 41.144531 21.082031 41.144531 Z M 21.082031 41.144531 " fill-opacity="1" fill-rule="nonzero"/></g><g clip-path="url(#29410fefb6)"><path fill="#0075b2" d="M 57.710938 48.988281 L 43.054688 48.988281 C 42.527344 48.988281 42.09375 49.421875 42.09375 49.953125 L 42.09375 73.910156 C 42.09375 74.4375 42.527344 74.871094 43.054688 74.871094 L 57.710938 74.871094 C 58.242188 74.871094 58.671875 74.4375 58.671875 73.910156 L 58.671875 49.953125 C 58.671875 49.421875 58.242188 48.988281 57.710938 48.988281 Z M 57.710938 48.988281 " fill-opacity="1" fill-rule="nonzero"/></g><path fill="#64b5f6" d="M 43.054688 32.671875 L 21.082031 32.671875 C 20.550781 32.671875 20.121094 33.105469 20.121094 33.636719 L 20.121094 73.910156 C 20.121094 74.4375 20.550781 74.871094 21.082031 74.871094 L 43.054688 74.871094 C 43.582031 74.871094 44.015625 74.4375 44.015625 73.910156 L 44.015625 33.636719 C 44.015625 33.105469 43.582031 32.671875 43.054688 32.671875 Z M 43.054688 32.671875 " fill-opacity="1" fill-rule="nonzero"/><path fill="#eeefee" d="M 38.25 41.144531 L 25.886719 41.144531 C 25.359375 41.144531 24.925781 41.578125 24.925781 42.109375 C 24.925781 42.636719 25.359375 43.070312 25.886719 43.070312 L 38.25 43.070312 C 38.777344 43.070312 39.210938 42.636719 39.210938 42.109375 C 39.210938 41.578125 38.777344 41.144531 38.25 41.144531 Z M 38.25 41.144531 " fill-opacity="1" fill-rule="nonzero"/><path fill="#eeefee" d="M 38.25 47.714844 L 25.886719 47.714844 C 25.359375 47.714844 24.925781 48.148438 24.925781 48.679688 C 24.925781 49.210938 25.359375 49.644531 25.886719 49.644531 L 38.25 49.644531 C 38.777344 49.644531 39.210938 49.210938 39.210938 48.679688 C 39.210938 48.148438 38.777344 47.714844 38.25 47.714844 Z M 38.25 47.714844 " fill-opacity="1" fill-rule="nonzero"/><path fill="#eeefee" d="M 38.25 54.289062 L 25.886719 54.289062 C 25.359375 54.289062 24.925781 54.722656 24.925781 55.253906 C 24.925781 55.78125 25.359375 56.214844 25.886719 56.214844 L 38.25 56.214844 C 38.777344 56.214844 39.210938 55.78125 39.210938 55.253906 C 39.210938 54.722656 38.777344 54.289062 38.25 54.289062 Z M 38.25 54.289062 " fill-opacity="1" fill-rule="nonzero"/><path fill="#eeefee" d="M 38.25 60.859375 L 25.886719 60.859375 C 25.359375 60.859375 24.925781 61.292969 24.925781 61.824219 C 24.925781 62.355469 25.359375 62.789062 25.886719 62.789062 L 38.25 62.789062 C 38.777344 62.789062 39.210938 62.355469 39.210938 61.824219 C 39.210938 61.292969 38.777344 60.859375 38.25 60.859375 Z M 38.25 60.859375 " fill-opacity="1" fill-rule="nonzero"/><path fill="#eeefee" d="M 38.25 67.441406 L 25.886719 67.441406 C 25.359375 67.441406 24.925781 67.875 24.925781 68.40625 C 24.925781 68.9375 25.359375 69.371094 25.886719 69.371094 L 38.25 69.371094 C 38.777344 69.371094 39.210938 68.9375 39.210938 68.40625 C 39.210938 67.875 38.777344 67.441406 38.25 67.441406 Z M 38.25 67.441406 " fill-opacity="1" fill-rule="nonzero"/><path fill="#eeefee" d="M 16.238281 45.683594 L 11.152344 45.683594 C 10.625 45.683594 10.191406 46.117188 10.191406 46.648438 L 10.191406 51.746094 C 10.191406 52.273438 10.625 52.707031 11.152344 52.707031 L 16.238281 52.707031 C 16.765625 52.707031 17.199219 52.273438 17.199219 51.746094 L 17.199219 46.648438 C 17.199219 46.117188 16.765625 45.683594 16.238281 45.683594 Z M 16.238281 45.683594 " fill-opacity="1" fill-rule="nonzero"/><path fill="#eeefee" d="M 16.238281 54.289062 L 11.152344 54.289062 C 10.625 54.289062 10.191406 54.722656 10.191406 55.253906 L 10.191406 60.351562 C 10.191406 60.878906 10.625 61.3125 11.152344 61.3125 L 16.238281 61.3125 C 16.765625 61.3125 17.199219 60.878906 17.199219 60.351562 L 17.199219 55.253906 C 17.199219 54.722656 16.765625 54.289062 16.238281 54.289062 Z M 16.238281 54.289062 " fill-opacity="1" fill-rule="nonzero"/><path fill="#eeefee" d="M 16.238281 62.894531 L 11.152344 62.894531 C 10.625 62.894531 10.191406 63.328125 10.191406 63.859375 L 10.191406 68.957031 C 10.191406 69.484375 10.625 69.917969 11.152344 69.917969 L 16.238281 69.917969 C 16.765625 69.917969 17.199219 69.484375 17.199219 68.957031 L 17.199219 63.859375 C 17.199219 63.328125 16.765625 62.894531 16.238281 62.894531 Z M 16.238281 62.894531 " fill-opacity="1" fill-rule="nonzero"/><path fill="#eeefee" d="M 52.761719 54.289062 L 47.675781 54.289062 C 47.148438 54.289062 46.714844 54.722656 46.714844 55.253906 L 46.714844 60.351562 C 46.714844 60.878906 47.148438 61.3125 47.675781 61.3125 L 52.761719 61.3125 C 53.289062 61.3125 53.722656 60.878906 53.722656 60.351562 L 53.722656 55.253906 C 53.722656 54.722656 53.289062 54.289062 52.761719 54.289062 Z M 52.761719 54.289062 " fill-opacity="1" fill-rule="nonzero"/><path fill="#eeefee" d="M 52.761719 62.894531 L 47.675781 62.894531 C 47.148438 62.894531 46.714844 63.328125 46.714844 63.859375 L 46.714844 68.957031 C 46.714844 69.484375 47.148438 69.917969 47.675781 69.917969 L 52.761719 69.917969 C 53.289062 69.917969 53.722656 69.484375 53.722656 68.957031 L 53.722656 63.859375 C 53.722656 63.328125 53.289062 62.894531 52.761719 62.894531 Z M 52.761719 62.894531 " fill-opacity="1" fill-rule="nonzero"/><g clip-path="url(#52d3d3c559)"><path fill="#0075b2" d="M 57.441406 28.257812 C 54.101562 28.257812 51.675781 30.675781 51.675781 34.003906 C 51.675781 37.332031 54.101562 39.75 57.441406 39.75 C 60.867188 39.75 63.261719 37.386719 63.261719 33.988281 C 63.195312 30.5625 60.859375 28.257812 57.441406 28.257812 Z M 57.441406 38.253906 C 54.945312 38.253906 53.203125 36.503906 53.203125 34.003906 C 53.203125 31.460938 54.910156 29.753906 57.441406 29.753906 C 60 29.753906 61.683594 31.425781 61.730469 34.003906 C 61.730469 36.546875 60.007812 38.253906 57.441406 38.253906 Z M 57.441406 38.253906 " fill-opacity="1" fill-rule="nonzero"/></g><g clip-path="url(#7214f981b3)"><path fill="#0075b2" d="M 65.042969 18.765625 C 67.175781 16.460938 69.835938 13.601562 69.835938 9.289062 C 69.835938 4.996094 66.796875 -0.0234375 58.226562 -0.0234375 C 53.238281 -0.0234375 49.738281 1.621094 48.46875 2.328125 C 48.15625 2.5 48.007812 2.863281 48.113281 3.199219 L 50.023438 9.183594 C 50.097656 9.414062 50.277344 9.59375 50.503906 9.671875 C 50.738281 9.746094 50.992188 9.714844 51.195312 9.578125 C 52.507812 8.6875 54.617188 8.0625 56.304688 8.0625 C 58.527344 8.105469 59.652344 8.964844 59.652344 10.609375 C 59.652344 12.109375 58.375 13.75 56.574219 15.894531 C 54.066406 18.777344 52.890625 21.839844 53.082031 24.972656 L 53.136719 26.398438 C 53.152344 26.800781 53.492188 27.121094 53.902344 27.121094 L 61.375 27.121094 C 61.796875 27.121094 62.140625 26.785156 62.140625 26.371094 L 62.140625 25.367188 C 62.089844 23.089844 62.910156 21.128906 64.808594 19.019531 Z M 63.664062 18.023438 C 61.515625 20.410156 60.550781 22.753906 60.609375 25.378906 L 60.609375 25.621094 L 54.636719 25.621094 L 54.609375 24.898438 C 54.441406 22.109375 55.464844 19.480469 57.753906 16.851562 C 59.4375 14.839844 61.183594 12.761719 61.183594 10.609375 C 61.183594 8.136719 59.367188 6.628906 56.316406 6.566406 C 54.648438 6.566406 52.707031 7.058594 51.195312 7.832031 L 49.765625 3.347656 C 51.226562 2.625 54.191406 1.476562 58.226562 1.476562 C 65.65625 1.476562 68.304688 5.511719 68.304688 9.289062 C 68.304688 13.023438 65.96875 15.539062 63.910156 17.757812 Z M 63.664062 18.023438 " fill-opacity="1" fill-rule="nonzero"/></g></svg>
