<svg xmlns="http://www.w3.org/2000/svg" xmlns:xlink="http://www.w3.org/1999/xlink" width="40" zoomAndPan="magnify" viewBox="0 0 30 30.000001" height="40" preserveAspectRatio="xMidYMid meet" version="1.0"><defs><clipPath id="9a60700964"><path d="M 0.484375 0 L 29.515625 0 L 29.515625 29.03125 L 0.484375 29.03125 Z M 0.484375 0 " clip-rule="nonzero"/></clipPath></defs><path fill="#ffd773" d="M 23.085938 14.515625 C 23.085938 15.011719 23.039062 15.5 22.9375 15.988281 C 22.839844 16.472656 22.695312 16.945312 22.5 17.402344 C 22.304688 17.859375 22.066406 18.292969 21.785156 18.707031 C 21.503906 19.117188 21.183594 19.496094 20.824219 19.847656 C 20.464844 20.199219 20.074219 20.511719 19.65625 20.785156 C 19.234375 21.0625 18.789062 21.292969 18.320312 21.484375 C 17.851562 21.671875 17.367188 21.816406 16.871094 21.910156 C 16.371094 22.007812 15.871094 22.054688 15.363281 22.054688 C 14.855469 22.054688 14.351562 22.007812 13.855469 21.910156 C 13.359375 21.816406 12.875 21.671875 12.40625 21.484375 C 11.9375 21.292969 11.492188 21.0625 11.070312 20.785156 C 10.648438 20.511719 10.257812 20.199219 9.902344 19.847656 C 9.542969 19.496094 9.222656 19.117188 8.941406 18.707031 C 8.660156 18.292969 8.421875 17.859375 8.226562 17.402344 C 8.03125 16.945312 7.886719 16.472656 7.785156 15.988281 C 7.6875 15.5 7.636719 15.011719 7.636719 14.515625 C 7.636719 14.019531 7.6875 13.53125 7.785156 13.046875 C 7.886719 12.558594 8.03125 12.089844 8.226562 11.628906 C 8.421875 11.171875 8.660156 10.738281 8.941406 10.328125 C 9.222656 9.914062 9.542969 9.535156 9.902344 9.183594 C 10.257812 8.835938 10.648438 8.523438 11.070312 8.246094 C 11.492188 7.972656 11.9375 7.738281 12.40625 7.550781 C 12.875 7.359375 13.359375 7.21875 13.855469 7.121094 C 14.351562 7.023438 14.855469 6.976562 15.363281 6.976562 C 15.871094 6.976562 16.371094 7.023438 16.871094 7.121094 C 17.367188 7.21875 17.851562 7.359375 18.320312 7.550781 C 18.789062 7.738281 19.234375 7.972656 19.65625 8.246094 C 20.074219 8.523438 20.464844 8.835938 20.824219 9.183594 C 21.183594 9.535156 21.503906 9.914062 21.785156 10.328125 C 22.066406 10.738281 22.304688 11.171875 22.5 11.628906 C 22.695312 12.089844 22.839844 12.558594 22.9375 13.046875 C 23.039062 13.53125 23.085938 14.019531 23.085938 14.515625 Z M 23.085938 14.515625 " fill-opacity="1" fill-rule="nonzero"/><g clip-path="url(#9a60700964)"><path fill="#d1a12a" d="M 15.363281 5.105469 C 15.136719 5.105469 14.960938 4.929688 14.960938 4.707031 L 14.960938 0.398438 C 14.960938 0.175781 15.136719 0 15.363281 0 C 15.585938 0 15.765625 0.175781 15.765625 0.398438 L 15.765625 4.707031 C 15.765625 4.921875 15.578125 5.105469 15.363281 5.105469 Z M 15.765625 28.632812 L 15.765625 24.324219 C 15.765625 24.101562 15.585938 23.925781 15.363281 23.925781 C 15.136719 23.925781 14.960938 24.101562 14.960938 24.324219 L 14.960938 28.632812 C 14.960938 28.855469 15.136719 29.03125 15.363281 29.03125 C 15.585938 29.03125 15.765625 28.855469 15.765625 28.632812 Z M 5.707031 14.515625 C 5.707031 14.292969 5.527344 14.117188 5.304688 14.117188 L 0.890625 14.117188 C 0.667969 14.117188 0.492188 14.292969 0.492188 14.515625 C 0.492188 14.738281 0.667969 14.914062 0.890625 14.914062 L 5.304688 14.914062 C 5.527344 14.914062 5.707031 14.738281 5.707031 14.515625 Z M 30.234375 14.515625 C 30.234375 14.292969 30.058594 14.117188 29.832031 14.117188 L 25.421875 14.117188 C 25.195312 14.117188 25.019531 14.292969 25.019531 14.515625 C 25.019531 14.738281 25.195312 14.914062 25.421875 14.914062 L 29.832031 14.914062 C 30.058594 14.914062 30.234375 14.738281 30.234375 14.515625 Z M 8.535156 7.859375 C 8.6875 7.699219 8.6875 7.453125 8.527344 7.292969 L 5.410156 4.246094 C 5.25 4.097656 5 4.097656 4.839844 4.253906 C 4.6875 4.414062 4.6875 4.660156 4.847656 4.820312 L 7.96875 7.867188 C 8.046875 7.945312 8.144531 7.976562 8.246094 7.976562 C 8.351562 7.976562 8.457031 7.9375 8.535156 7.859375 Z M 25.878906 24.785156 C 26.03125 24.625 26.03125 24.378906 25.871094 24.21875 L 22.75 21.171875 C 22.589844 21.023438 22.339844 21.023438 22.179688 21.179688 C 22.027344 21.339844 22.027344 21.585938 22.1875 21.746094 L 25.308594 24.792969 C 25.390625 24.871094 25.484375 24.902344 25.589844 24.902344 C 25.695312 24.902344 25.796875 24.863281 25.878906 24.785156 Z M 5.410156 24.785156 L 8.527344 21.738281 C 8.6875 21.585938 8.6875 21.332031 8.535156 21.171875 C 8.382812 21.015625 8.128906 21.015625 7.96875 21.164062 L 4.847656 24.21875 C 4.6875 24.371094 4.6875 24.625 4.839844 24.785156 C 4.917969 24.863281 5.023438 24.902344 5.128906 24.902344 C 5.230469 24.902344 5.328125 24.863281 5.410156 24.785156 Z M 22.75 7.867188 L 25.871094 4.820312 C 26.03125 4.667969 26.03125 4.414062 25.878906 4.253906 C 25.726562 4.097656 25.46875 4.097656 25.308594 4.246094 L 22.1875 7.292969 C 22.027344 7.445312 22.027344 7.699219 22.179688 7.859375 C 22.261719 7.9375 22.367188 7.976562 22.46875 7.976562 C 22.574219 7.976562 22.679688 7.9375 22.75 7.867188 Z M 11.65625 5.796875 C 11.859375 5.710938 11.953125 5.480469 11.875 5.28125 L 11.085938 3.429688 C 11 3.230469 10.765625 3.132812 10.558594 3.214844 C 10.359375 3.300781 10.261719 3.53125 10.339844 3.730469 L 11.128906 5.582031 C 11.191406 5.734375 11.34375 5.832031 11.496094 5.832031 C 11.5625 5.832031 11.609375 5.824219 11.65625 5.796875 Z M 20.160156 25.828125 C 20.359375 25.738281 20.457031 25.507812 20.375 25.308594 L 19.589844 23.457031 C 19.5 23.257812 19.269531 23.164062 19.0625 23.242188 C 18.859375 23.328125 18.765625 23.558594 18.84375 23.757812 L 19.628906 25.613281 C 19.695312 25.761719 19.847656 25.859375 20 25.859375 C 20.054688 25.859375 20.113281 25.84375 20.160156 25.828125 Z M 4.300781 19.414062 L 6.203125 18.644531 C 6.410156 18.566406 6.507812 18.324219 6.417969 18.128906 C 6.339844 17.921875 6.097656 17.824219 5.898438 17.914062 L 3.996094 18.683594 C 3.789062 18.761719 3.691406 19.003906 3.78125 19.199219 C 3.84375 19.351562 3.996094 19.449219 4.148438 19.449219 C 4.195312 19.449219 4.253906 19.441406 4.300781 19.414062 Z M 24.820312 11.128906 L 26.722656 10.355469 C 26.929688 10.277344 27.027344 10.039062 26.9375 9.839844 C 26.855469 9.632812 26.617188 9.535156 26.417969 9.625 L 24.515625 10.394531 C 24.308594 10.476562 24.210938 10.714844 24.296875 10.914062 C 24.363281 11.0625 24.515625 11.160156 24.667969 11.160156 C 24.722656 11.152344 24.773438 11.144531 24.820312 11.128906 Z M 19.589844 5.589844 L 20.375 3.738281 C 20.464844 3.539062 20.367188 3.300781 20.160156 3.222656 C 19.949219 3.132812 19.71875 3.230469 19.628906 3.4375 L 18.84375 5.289062 C 18.757812 5.488281 18.851562 5.726562 19.0625 5.804688 C 19.109375 5.832031 19.164062 5.839844 19.214844 5.839844 C 19.375 5.832031 19.527344 5.742188 19.589844 5.589844 Z M 11.085938 25.613281 L 11.875 23.757812 C 11.960938 23.558594 11.867188 23.320312 11.65625 23.242188 C 11.449219 23.152344 11.214844 23.25 11.128906 23.457031 L 10.339844 25.308594 C 10.253906 25.507812 10.347656 25.746094 10.558594 25.828125 C 10.605469 25.851562 10.664062 25.859375 10.710938 25.859375 C 10.871094 25.859375 11.023438 25.761719 11.085938 25.613281 Z M 6.425781 10.90625 C 6.507812 10.699219 6.410156 10.46875 6.210938 10.386719 L 4.308594 9.617188 C 4.101562 9.535156 3.867188 9.632812 3.789062 9.832031 C 3.707031 10.039062 3.804688 10.269531 4.003906 10.347656 L 5.90625 11.121094 C 5.953125 11.144531 6.011719 11.152344 6.058594 11.152344 C 6.210938 11.152344 6.363281 11.054688 6.425781 10.90625 Z M 26.945312 19.199219 C 27.027344 18.996094 26.929688 18.761719 26.730469 18.683594 L 24.820312 17.914062 C 24.613281 17.832031 24.378906 17.929688 24.296875 18.128906 C 24.21875 18.335938 24.316406 18.566406 24.515625 18.644531 L 26.417969 19.414062 C 26.464844 19.441406 26.519531 19.449219 26.570312 19.449219 C 26.730469 19.449219 26.882812 19.351562 26.945312 19.199219 Z M 26.945312 19.199219 " fill-opacity="1" fill-rule="nonzero"/></g></svg>